<?xml version="1.0" encoding="UTF-8"?>
<svg version="1.1" xmlns="http://www.w3.org/2000/svg" width="718" height="659">
<path d="M0 0 C1.65 0 3.3 0 5 0 C3.5780018 3.5549955 2.36269949 4.36668882 -1 6 C-1.78375 6.78375 -2.5675 7.5675 -3.375 8.375 C-6.05903638 11.05903638 -8.83007198 12.93265564 -12 15 C-12.4846875 15.4846875 -12.969375 15.969375 -13.46875 16.46875 C-15.01068886 18.01068886 -16.56991323 19.1579958 -18.375 20.375 C-20.77007831 22.04048513 -22.55579958 23.56903291 -24.625 25.6875 C-27 28 -27 28 -29.6875 29.0625 C-32.1300623 29.75150185 -32.1300623 29.75150185 -32.875 31.8125 C-34.3587893 34.69764586 -36.36361966 35.82552549 -39.05078125 37.55859375 C-41.63396653 39.46880491 -43.75574067 41.70230593 -46 44 C-47.39798828 45.36318359 -47.39798828 45.36318359 -48.82421875 46.75390625 C-49.77867077 47.69007875 -50.73309771 48.6262768 -51.6875 49.5625 C-52.17283203 50.03107422 -52.65816406 50.49964844 -53.15820312 50.98242188 C-55.7307043 53.51944028 -57.44733293 55.76913107 -59 59 C-59.61746094 59.60714844 -60.23492187 60.21429688 -60.87109375 60.83984375 C-63.46324763 63.47004759 -65.25093908 66.37510853 -67.0625 69.5625 C-67.41393066 70.17875244 -67.76536133 70.79500488 -68.12744141 71.42993164 C-71.06379648 76.76456264 -72.72371943 82.05042139 -74 88 C-74.38402633 89.39912776 -74.778263 90.79553743 -75.1875 92.1875 C-75.455625 93.115625 -75.72375 94.04375 -76 95 C-76.66 95 -77.32 95 -78 95 C-77.94755484 99.1259877 -77.85234697 103.2499723 -77.75 107.375 C-77.73582031 108.53128906 -77.72164062 109.68757813 -77.70703125 110.87890625 C-77.45051474 119.95959087 -75.26601467 126.46797065 -71.25 134.5 C-70 137 -70 137 -70 139 C-69.34 139 -68.68 139 -68 139 C-66.33333333 140.66666667 -64.66666667 142.33333333 -63 144 C-53.15112358 151.61049541 -42.93658382 151.45798501 -31.125 151.3125 C-29.53955122 151.30250245 -27.95410199 151.29257445 -26.36865234 151.28271484 C-16.24579612 151.18880717 -6.30410855 150.65753172 3.73095703 149.28222656 C6.34690208 148.95685186 8.96356672 148.71932016 11.58984375 148.4921875 C12.54262207 148.40952637 13.49540039 148.32686523 14.47705078 148.24169922 C16.30970536 148.08548017 18.14270082 147.93318824 19.97607422 147.78564453 C23.47870861 147.47452618 26.55554223 147.15235125 29.89453125 146.0078125 C34.63005838 144.47099992 39.42952468 144.25978826 44.375 143.875 C45.37789062 143.78863281 46.38078125 143.70226562 47.4140625 143.61328125 C52.96321205 143.15569431 58.43273139 142.90699074 64 143 C63.64880827 145.83417891 63.21508776 146.81648089 61.00390625 148.703125 C60.19824219 149.21359375 59.39257812 149.7240625 58.5625 150.25 C57.75941406 150.77078125 56.95632813 151.2915625 56.12890625 151.828125 C54 153 54 153 52 153 C51.67 153.99 51.34 154.98 51 156 C45.77777778 159 45.77777778 159 43 159 C43 159.66 43 160.32 43 161 C37.7792663 164.86565393 32.33605675 167.62259636 26 169 C26 169.66 26 170.32 26 171 C24.90300781 171.39832031 23.80601562 171.79664063 22.67578125 172.20703125 C21.22125618 172.74192112 19.76683452 173.27709225 18.3125 173.8125 C17.59126953 174.07353516 16.87003906 174.33457031 16.12695312 174.60351562 C13.04880707 175.742008 10.27021811 176.8331987 7.46875 178.5625 C4.21415114 180.45758288 0.81186559 181.29614885 -2.8125 182.1875 C-3.85180664 182.45336914 -3.85180664 182.45336914 -4.91210938 182.72460938 C-6.60625944 183.15690974 -8.30289268 183.57945894 -10 184 C-8.68 184.33 -7.36 184.66 -6 185 C-5.5 188.0625 -5.5 188.0625 -6 192 C-7.5703125 193.6015625 -7.5703125 193.6015625 -9.625 195.1875 C-15.6233494 199.89668372 -19.09050619 206.67581986 -20.65234375 214.1015625 C-21.68732347 222.7302698 -21.6332708 231.93616653 -17.82421875 239.8515625 C-16.25234589 243.94886142 -15.58625537 248.30191462 -14.74609375 252.59765625 C-14.06698447 255.98701129 -14.06698447 255.98701129 -12.94921875 259.12890625 C-12.07078842 261.78588689 -11.62729735 264.09972918 -11.375 266.875 C-11.26285156 268.04675781 -11.26285156 268.04675781 -11.1484375 269.2421875 C-11.09945312 269.82226562 -11.05046875 270.40234375 -11 271 C-10.34 271 -9.68 271 -9 271 C-8.01 274.3 -7.02 277.6 -6 281 C-1.98952409 278.37618589 -1.98952409 278.37618589 1.86328125 275.53125 C4.28803225 273.79358566 6.73002927 272.56296845 9.4375 271.3125 C10.36433594 270.87550781 11.29117188 270.43851562 12.24609375 269.98828125 C15.0421096 268.98488833 17.05790136 268.80243621 20 269 C20 268.34 20 267.68 20 267 C37.10583371 266.28560323 37.10583371 266.28560323 44.57421875 269.91015625 C49.15519679 271.96827682 54.11762339 272.89265685 59 274 C59.38218767 275.65614657 59.71395102 277.32457024 60 279 C58.42554083 280.57445917 56.66414041 280.38628216 54.484375 280.6484375 C53.56269531 280.76703125 52.64101563 280.885625 51.69140625 281.0078125 C49.74680573 281.25056476 47.80148771 281.48764383 45.85546875 281.71875 C40.81625475 282.3775624 37.2593008 283.0717307 33 286 C30.63417027 286.61053671 28.30201749 286.99173232 25.890625 287.375 C25.26671875 287.58125 24.6428125 287.7875 24 288 C23.67 288.99 23.34 289.98 23 291 C22.34 291 21.68 291 21 291 C18.89755 301.53759678 18.21786245 312.11476747 17.5 322.8125 C15.59855828 350.97531379 15.59855828 350.97531379 12.875 363.375 C11.53791065 369.74209215 11.00948092 375.13763322 14 381 C14 381.99 14 382.98 14 384 C14.66 384 15.32 384 16 384 C17.625 386 17.625 386 19 388 C19.45375 387.34 19.9075 386.68 20.375 386 C20.91125 385.34 21.4475 384.68 22 384 C22.66 384 23.32 384 24 384 C24.020625 383.4225 24.04125 382.845 24.0625 382.25 C25.52680559 378.73566659 28.66391823 377.47119134 32 376 C39.53345406 373.53159165 48.66803451 374.3814409 56 377 C57.58554687 377.45439453 57.58554687 377.45439453 59.203125 377.91796875 C60.37359375 378.25441406 61.5440625 378.59085937 62.75 378.9375 C63.85859375 379.25589844 64.9671875 379.57429688 66.109375 379.90234375 C68.99214142 380.99701586 69.96516761 381.81546605 72 384 C73.69984012 384.95030432 75.432191 385.84403983 77.1875 386.6875 C78.08855469 387.12449219 78.98960937 387.56148438 79.91796875 388.01171875 C80.60503906 388.33785156 81.29210937 388.66398437 82 389 C82 389.66 82 390.32 82 391 C83.09441406 391.40412109 83.09441406 391.40412109 84.2109375 391.81640625 C86.92868564 392.96973634 89.1827105 394.28832513 91.625 395.9375 C92.38039063 396.44152344 93.13578125 396.94554687 93.9140625 397.46484375 C95.81084774 398.86079244 97.34748623 400.33390393 99 402 C100.051875 402.680625 101.10375 403.36125 102.1875 404.0625 C103.115625 404.701875 104.04375 405.34125 105 406 C105 406.66 105 407.32 105 408 C105.66 408 106.32 408 107 408 C107.66 408.66 108.32 409.32 109 410 C108.83918945 409.27272705 108.67837891 408.5454541 108.51269531 407.79614258 C106.06738699 394.45989676 107.85847407 380.05229225 111 367 C111.99 366.67 112.98 366.34 114 366 C113.79375 365.21625 113.5875 364.4325 113.375 363.625 C113.25125 362.75875 113.1275 361.8925 113 361 C113.66 360.34 114.32 359.68 115 359 C126.0443127 336.94213871 128.07399861 311.68969935 121.109375 287.953125 C117.53055429 278.42640509 112.47106447 269.54853823 107 261 C107 260.34 107 259.68 107 259 C106.34 259 105.68 259 105 259 C104.773125 258.443125 104.54625 257.88625 104.3125 257.3125 C101.36703971 252.12287949 96.57783818 248.86583687 91.8515625 245.4140625 C89.71041502 243.77884016 87.90272316 241.90272316 86 240 C85.0925 239.46375 84.185 238.9275 83.25 238.375 C82.5075 237.92125 81.765 237.4675 81 237 C81 236.34 81 235.68 81 235 C80.43152344 234.89042969 79.86304688 234.78085938 79.27734375 234.66796875 C72.39628673 232.64968273 67.20985156 227.57186236 63 222 C62.53078125 221.53851563 62.0615625 221.07703125 61.578125 220.6015625 C55.02006235 213.94610288 48.3013059 203.67438232 47.87109375 194.14453125 C47.91363281 193.43683594 47.95617187 192.72914063 48 192 C47.34 192 46.68 192 46 192 C44.52158523 182.94470955 43.83886812 172.97041248 46 164 C46.66 164 47.32 164 48 164 C48 163.01 48 162.02 48 161 C49.86328125 159.5 49.86328125 159.5 52.3125 158 C55.23798126 156.19100676 57.59288505 154.43999904 60 152 C66.00668896 148 66.00668896 148 69 148 C69.20625 147.38125 69.4125 146.7625 69.625 146.125 C71.54775888 143.15346355 73.66594527 142.86975341 77 142 C76.01 139.525 76.01 139.525 75 137 C74.01 137.66 73.02 138.32 72 139 C69.27442932 139.38563538 69.27442932 139.38563538 65.93969727 139.57836914 C64.69152725 139.65507339 63.44335724 139.73177765 62.15736389 139.81080627 C60.79371557 139.88566668 59.43006292 139.96044808 58.06640625 140.03515625 C56.66774716 140.11868813 55.26914203 140.20312795 53.87059021 140.28843689 C50.18840099 140.51109137 46.50570012 140.72357245 42.82275391 140.93328857 C36.93128591 141.2700848 31.0406334 141.62056681 25.15015984 141.97427177 C23.09416663 142.09601249 21.03792137 142.2124018 18.98158264 142.32814026 C17.73026047 142.40169235 16.47893829 142.47524445 15.18969727 142.55102539 C13.53781151 142.64523521 13.53781151 142.64523521 11.85255432 142.74134827 C9.43368686 142.960676 7.33591687 143.38804148 5 144 C2.27809966 144.13061807 -0.41766656 144.21182778 -3.140625 144.23828125 C-3.94046814 144.246353 -4.74031128 144.25442474 -5.56439209 144.26274109 C-7.26230725 144.27656229 -8.96024996 144.28729322 -10.65820312 144.29516602 C-12.3646684 144.30657889 -14.0711011 144.32685658 -15.77734375 144.35668945 C-45.90735427 144.8825545 -45.90735427 144.8825545 -53.47265625 137.578125 C-53.97667969 137.05734375 -54.48070312 136.5365625 -55 136 C-56.13376616 135.23188 -57.28012292 134.48206033 -58.4375 133.75 C-62.32584375 131.03145458 -64.01361303 128.29059585 -66 124 C-66 123.01 -66 122.02 -66 121 C-66.66 121 -67.32 121 -68 121 C-71.10931696 110.89471988 -70.52457622 101.18846832 -68 91 C-65.525 90.505 -65.525 90.505 -63 90 C-63 90.66 -63 91.32 -63 92 C-62.21753906 92.13277344 -61.43507812 92.26554687 -60.62890625 92.40234375 C-59.11103516 92.66724609 -59.11103516 92.66724609 -57.5625 92.9375 C-56.04849609 93.19853516 -56.04849609 93.19853516 -54.50390625 93.46484375 C-52 94 -52 94 -51 95 C-35.8651054 96.54039767 -22.07838377 95.10016027 -9 87 C-7.28088365 86.08502803 -5.55170696 85.18868142 -3.8125 84.3125 C-2.95269531 83.87550781 -2.09289062 83.43851562 -1.20703125 82.98828125 C1 82 1 82 3 82 C3 81.34 3 80.68 3 80 C4.32 79.67 5.64 79.34 7 79 C7 78.34 7 77.68 7 77 C8.134375 76.731875 9.26875 76.46375 10.4375 76.1875 C11.613125 75.795625 12.78875 75.40375 14 75 C14.33 74.01 14.66 73.02 15 72 C17.43359375 70.39453125 17.43359375 70.39453125 20.4375 68.8125 C21.42621094 68.28269531 22.41492188 67.75289063 23.43359375 67.20703125 C26 66 26 66 28 66 C28 65.34 28 64.68 28 64 C29.24716797 63.40251953 29.24716797 63.40251953 30.51953125 62.79296875 C31.60621094 62.26316406 32.69289063 61.73335937 33.8125 61.1875 C34.89144531 60.66542969 35.97039062 60.14335938 37.08203125 59.60546875 C39.91587502 58.22442836 39.91587502 58.22442836 41.484375 56.5078125 C43.7913409 54.21273818 46.52092371 53.10189318 49.4375 51.6875 C50.6968041 51.074608 51.95591525 50.4613194 53.21484375 49.84765625 C53.8476123 49.54102051 54.48038086 49.23438477 55.13232422 48.91845703 C58.88492314 47.07306132 62.57924541 45.1086548 66.28125 43.1640625 C69.1981472 41.91516111 71.86155437 41.39692106 75 41 C75 40.34 75 39.68 75 39 C77.22763988 38.18309823 79.4569486 37.37138128 81.6875 36.5625 C82.31333984 36.33240234 82.93917969 36.10230469 83.58398438 35.86523438 C87.03242308 34.61946333 90.3813479 33.60195551 94 33 C94 32.34 94 31.68 94 31 C105.07294438 28.20016578 115.99206351 25.58960352 127.359375 24.359375 C129.9194799 24.28228459 129.9194799 24.28228459 131 23 C133.50924153 22.89912788 135.99036384 22.86027968 138.5 22.8671875 C139.25087891 22.86623077 140.00175781 22.86527405 140.77539062 22.86428833 C142.36588627 22.86360662 143.95638467 22.86546028 145.546875 22.86962891 C147.98964655 22.87497733 150.43223421 22.86968366 152.875 22.86328125 C154.41666707 22.86394203 155.95833403 22.8652232 157.5 22.8671875 C158.23541016 22.86516327 158.97082031 22.86313904 159.72851562 22.86105347 C164.88504839 22.88504839 164.88504839 22.88504839 166 24 C168.89395081 24.47180714 171.78474787 24.9023436 174.6875 25.3125 C183.05286486 26.55072907 190.93771704 28.40902163 199 31 C199 31.66 199 32.32 199 33 C200.32 33 201.64 33 203 33 C203 33.66 203 34.32 203 35 C203.86625 35.103125 204.7325 35.20625 205.625 35.3125 C209.16683123 36.03398414 211.84312042 37.27123261 215 39 C215 39.66 215 40.32 215 41 C215.87785156 41.25136719 216.75570313 41.50273438 217.66015625 41.76171875 C221.12621552 43.04679569 223.50294122 44.58496118 226.4375 46.8125 C227.38753906 47.52664062 228.33757812 48.24078125 229.31640625 48.9765625 C230.20199219 49.64429688 231.08757812 50.31203125 232 51 C233.28832923 51.90062641 234.57942715 52.79732522 235.875 53.6875 C240.91389821 57.41628467 245.05261864 62.04326093 249.3125 66.625 C250.63701172 68.03652344 250.63701172 68.03652344 251.98828125 69.4765625 C254 72 254 72 254 75 C254.66 75 255.32 75 256 75 C257.5078125 76.8984375 257.5078125 76.8984375 259.125 79.375 C259.93324219 80.59316406 259.93324219 80.59316406 260.7578125 81.8359375 C262 84 262 84 262 86 C262.66 86 263.32 86 264 86 C264.12375 86.804375 264.2475 87.60875 264.375 88.4375 C264.58125 89.283125 264.7875 90.12875 265 91 C265.66 91.33 266.32 91.66 267 92 C270.65079064 96.5269804 270.6855066 101.41503101 271 107 C269.68 106.34 268.36 105.68 267 105 C267 104.34 267 103.68 267 103 C266.34 103 265.68 103 265 103 C263.703125 101.42578125 263.703125 101.42578125 262.25 99.3125 C259.48642694 95.49325548 256.69312104 92.90735061 253 90 C251.33333333 88.33333333 249.66666667 86.66666667 248 85 C243.29542008 80.58447266 238.72991383 76.98433012 233 74 C233 73.34 233 72.68 233 72 C230.46105957 70.97711753 227.91927742 69.9694305 225.359375 69 C224.49828125 68.67 223.6371875 68.34 222.75 68 C221.87859375 67.67 221.0071875 67.34 220.109375 67 C218 66 218 66 217 64 C214.60770571 63.05311163 212.25833871 62.21877739 209.8125 61.4375 C209.15185547 61.21642578 208.49121094 60.99535156 207.81054688 60.76757812 C203.89756036 59.48900109 200.07643824 58.56423484 196 58 C196 57.34 196 56.68 196 56 C185.87831335 55.12831379 175.83966915 54.83874591 165.6875 54.875 C164.60905319 54.87632935 164.60905319 54.87632935 163.50881958 54.87768555 C152.97954476 54.89291629 142.4965848 55.10258206 132 56 C132 56.66 132 57.32 132 58 C130.783125 58.268125 129.56625 58.53625 128.3125 58.8125 C125.41794485 59.45113995 122.5315531 60.11192496 119.6484375 60.80078125 C117.93527344 61.20876953 117.93527344 61.20876953 116.1875 61.625 C115.10855469 61.88539062 114.02960938 62.14578125 112.91796875 62.4140625 C110 63 110 63 106 63 C105.67 63.99 105.34 64.98 105 66 C102.19921875 67.09765625 102.19921875 67.09765625 98.6875 68.0625 C94.11725469 69.30065118 94.11725469 69.30065118 89.76953125 71.12109375 C88 72 88 72 85 72 C85 72.66 85 73.32 85 74 C84.09636719 74.40992187 83.19273437 74.81984375 82.26171875 75.2421875 C81.08222656 75.78101562 79.90273438 76.31984375 78.6875 76.875 C77.51574219 77.40867187 76.34398437 77.94234375 75.13671875 78.4921875 C71.94103057 79.9385919 71.94103057 79.9385919 69 82 C72.92108692 81.36084847 76.24078192 80.15306038 79.875 78.5625 C83.22188934 77.13164313 86.48255175 75.75657702 90 74.8125 C92.85904435 74.16073392 92.85904435 74.16073392 94.72265625 73.0703125 C97.84509384 71.60282039 101.09749472 70.86129181 104.4375 70.0625 C105.13818604 69.89065186 105.83887207 69.71880371 106.56079102 69.54174805 C112.23117299 68.15927569 117.92050914 66.86531149 123.62109375 65.61328125 C125.93871649 65.23068315 125.93871649 65.23068315 127 64 C148.05623443 60.59018426 169.93453812 60.91590623 191 64 C191 64.66 191 65.32 191 66 C191.78890625 65.93941406 192.5778125 65.87882812 193.390625 65.81640625 C198.15719274 66.05886154 202.24343287 67.43874061 206.75 68.9375 C208.04357422 69.35418945 208.04357422 69.35418945 209.36328125 69.77929688 C215.62580218 71.81290109 215.62580218 71.81290109 218 73 C218 73.66 218 74.32 218 75 C218.825 75.0825 219.65 75.165 220.5 75.25 C224.76753921 76.16447269 228.19236894 77.92223178 232 80 C232 80.66 232 81.32 232 82 C232.66 82.20625 233.32 82.4125 234 82.625 C241.91372827 86.25212546 248.97207522 92.82384756 255 99 C255 99.66 255 100.32 255 101 C255.598125 101.2475 256.19625 101.495 256.8125 101.75 C259.31626919 103.18072525 260.48072388 104.5691582 262 107 C262 107.66 262 108.32 262 109 C262.66 109 263.32 109 264 109 C264.66 110.98 265.32 112.96 266 115 C266.66 115 267.32 115 268 115 C275.02488033 124.09753646 282 137.32961606 282 149 C282.66 149 283.32 149 284 149 C284.48794398 151.1021486 284.96480744 153.2068695 285.4375 155.3125 C285.83775391 157.07013672 285.83775391 157.07013672 286.24609375 158.86328125 C287.96123552 167.45187933 288.1509376 176.21713957 288.18945312 184.94750977 C288.19774643 185.97978195 288.20603973 187.01205414 288.21458435 188.0756073 C288.23185083 190.29461279 288.24705281 192.51363516 288.26036072 194.73266792 C288.28155351 198.24166004 288.30855498 201.75056616 288.33703613 205.25950623 C288.40652414 213.96171722 288.46643725 222.66398868 288.52606201 231.36627197 C288.57693007 238.74664679 288.63168695 246.12697168 288.69187927 253.50727654 C288.71848608 256.96956286 288.73926926 260.43185388 288.7598877 263.8941803 C288.77648057 266.00180287 288.79335151 268.10942327 288.81054688 270.21704102 C288.81473129 271.18374725 288.81891571 272.15045349 288.82322693 273.14645386 C288.83157059 274.02520676 288.83991425 274.90395966 288.84851074 275.80934143 C288.85366447 276.57489129 288.85881821 277.34044115 288.86412811 278.12918949 C288.88718623 280.09208047 288.88718623 280.09208047 290 282 C290.14050071 283.61901725 290.22570321 285.24303484 290.28125 286.8671875 C290.31863281 287.83527344 290.35601563 288.80335938 290.39453125 289.80078125 C290.44673828 291.32251953 290.44673828 291.32251953 290.5 292.875 C290.56905684 294.87253301 290.64183084 296.8699418 290.71875 298.8671875 C290.74904297 299.75519043 290.77933594 300.64319336 290.81054688 301.55810547 C290.92608412 303.94161443 290.92608412 303.94161443 291.49780273 305.96826172 C292.13442459 308.54384126 292.21771154 310.98996704 292.31640625 313.640625 C292.35830078 314.71054687 292.40019531 315.78046875 292.44335938 316.8828125 C292.50233398 318.54957031 292.50233398 318.54957031 292.5625 320.25 C292.60568359 321.37664062 292.64886719 322.50328125 292.69335938 323.6640625 C292.79932015 326.44258954 292.90139142 329.22120391 293 332 C291.35 331.67 289.7 331.34 288 331 C287.67 330.01 287.34 329.02 287 328 C284.99983534 326.79117904 284.99983534 326.79117904 283 326 C283 325.34 283 324.68 283 324 C282.34 324 281.68 324 281 324 C279.44140625 322.234375 279.44140625 322.234375 277.5625 319.75 C271.96580813 312.57030222 265.87356315 305.81566235 259.38671875 299.42578125 C257.21088934 297.21434089 255.3529571 294.98226328 253.5 292.5 C251.49736963 289.86772165 249.51877804 287.4080831 247.125 285.125 C245 283 245 283 244 280 C243.401875 279.731875 242.80375 279.46375 242.1875 279.1875 C239.06465326 277.49224034 237.9148708 274.95934579 236 272 C234.35353315 270.31337542 232.68816933 268.64488294 231 267 C228.28867676 263.93330915 227.58021953 261.8193369 227.3125 257.75 C227.24675781 256.85796875 227.18101562 255.9659375 227.11328125 255.046875 C227.07589844 254.37140625 227.03851563 253.6959375 227 253 C226.34 253 225.68 253 225 253 C224.32694982 251.39850114 223.66177773 249.79368971 223 248.1875 C222.62875 247.29417969 222.2575 246.40085938 221.875 245.48046875 C221 243 221 243 221 240 C220.34 240 219.68 240 219 240 C217.66065284 237.04435292 216.32955753 234.0850622 215 231.125 C214.6184375 230.28324219 214.236875 229.44148437 213.84375 228.57421875 C213.4828125 227.76855469 213.121875 226.96289062 212.75 226.1328125 C212.41484375 225.38918457 212.0796875 224.64555664 211.734375 223.87939453 C211 222 211 222 211 220 C210.34 219.67 209.68 219.34 209 219 C207.82217953 216.94606677 206.70646575 214.85626081 205.625 212.75 C203.40162481 208.42078488 201.04488201 204.78262876 198 201 C198 200.34 198 199.68 198 199 C197.278125 198.7525 196.55625 198.505 195.8125 198.25 C193 197 193 197 190.4375 194.9375 C186.09334127 191.48445075 181.57386515 191.78978848 176.1875 191.75 C175.50107422 191.729375 174.81464844 191.70875 174.10742188 191.6875 C169.08967998 191.64952277 165.56586425 192.74707057 161 195 C160.2059375 195.34160156 159.411875 195.68320313 158.59375 196.03515625 C150.34166768 200.08421903 145.43385106 207.60614186 142 216 C140.68912833 222.51205371 140.81597731 228.94518551 140.8125 235.5625 C140.80025391 236.76197266 140.78800781 237.96144531 140.77539062 239.19726562 C140.7586591 249.53177106 140.98541314 259.77316018 146 269 C146.82730983 271.82186373 147.55468652 274.65558393 148.25390625 277.51171875 C148.93243149 280.21536654 148.93243149 280.21536654 151 283 C151 284.32 151 285.64 151 287 C151.66 287.33 152.32 287.66 153 288 C154.00561523 289.59472656 154.00561523 289.59472656 155.05859375 291.640625 C155.44466797 292.38183594 155.83074219 293.12304688 156.22851562 293.88671875 C156.62748047 294.66660156 157.02644531 295.44648438 157.4375 296.25 C162.05286431 305.29181618 162.05286431 305.29181618 167.8125 313.625 C170.90532091 317.67182537 173.26425757 321.96964269 175.60546875 326.484375 C176.91180914 328.84091061 178.38303747 330.85267377 180 333 C180.78677419 334.43882677 181.53480701 335.89928489 182.25 337.375 C183.76567627 340.48514917 185.29373497 343.58493996 186.87890625 346.66015625 C187.19891602 347.2855127 187.51892578 347.91086914 187.84863281 348.55517578 C188.48300794 349.79403905 189.12157529 351.03076606 189.76464844 352.26513672 C191.18663088 355.0625439 192 356.81309535 192 360 C192.66 360 193.32 360 194 360 C194.40992188 360.98742187 194.81984375 361.97484375 195.2421875 362.9921875 C195.78620174 364.28656621 196.33048669 365.58083116 196.875 366.875 C197.14441406 367.52597656 197.41382813 368.17695313 197.69140625 368.84765625 C198.88423286 371.66970945 199.81257989 373.81257989 202 376 C202.25878906 378.12304687 202.25878906 378.12304687 202.265625 380.71875 C202.26820313 381.65074219 202.27078125 382.58273437 202.2734375 383.54296875 C202.26570313 384.51878906 202.25796875 385.49460937 202.25 386.5 C202.25773437 387.47582031 202.26546875 388.45164062 202.2734375 389.45703125 C202.26957031 390.85501953 202.26957031 390.85501953 202.265625 392.28125 C202.26336914 393.13783203 202.26111328 393.99441406 202.25878906 394.87695312 C202 397 202 397 200 399 C197 399 197 399 195.1875 397.25 C194.465625 396.5075 193.74375 395.765 193 395 C191.02369593 393.63178949 189.02790984 392.29048808 187 391 C187.16113281 392.00289063 187.32226562 393.00578125 187.48828125 394.0390625 C188.70972343 403.49358444 188.58035454 412.80748694 186 422 C185.34 422 184.68 422 184 422 C184 422.99 184 423.98 184 425 C183.34 425 182.68 425 182 425 C181.731875 425.886875 181.46375 426.77375 181.1875 427.6875 C179.14092298 433.39637275 176.30326011 436.79236789 172 441 C164.84712592 448.41883221 161.80459133 454.10144238 159 464 C156.85252945 470.78359856 154.62193099 476.52666067 150 482 C149.34 482 148.68 482 148 482 C148 482.66 148 483.32 148 484 C140.21381172 492.29715689 130.19643391 496.6056785 119.47265625 499.73828125 C114.36381572 501.25988267 111.60288681 502.88241508 108 507 C106.19921875 508.7265625 106.19921875 508.7265625 104 510 C96.85990596 509.28814772 88.87939409 506.36733349 84 501 C83.34 500.67 82.68 500.34 82 500 C82 499.34 82 498.68 82 498 C81.4225 497.814375 80.845 497.62875 80.25 497.4375 C77.5966255 495.74228852 76.54800836 493.81665914 75.125 491.046875 C73.95251006 488.81709078 73.95251006 488.81709078 72.0078125 486.22265625 C64.79063078 474.63865835 63.79157421 456.35661949 64 443 C63.34 443 62.68 443 62 443 C57.59225513 426.29157175 57.59225513 426.29157175 57 418 C59.97 416.02 62.94 414.04 66 412 C63.03 412 60.06 412 57 412 C57 412.66 57 413.32 57 414 C50.53012948 415.78479187 45.82325198 416.89402979 39.25 414.8125 C36.50791373 413.1441953 36.03273055 412.10720641 35.078125 408.98046875 C34.25803809 404.04332389 33.64192236 399.8502773 35 395 C34.43079834 395.01571045 33.86159668 395.0314209 33.27514648 395.04760742 C30.66270126 395.11048439 28.0504159 395.14915532 25.4375 395.1875 C24.09461914 395.22520508 24.09461914 395.22520508 22.72460938 395.26367188 C17.04203816 395.32611771 12.96833483 394.86096059 8 392 C7.505 390.515 7.505 390.515 7 389 C6.01 388.67 5.02 388.34 4 388 C1.76462101 382.47304354 1.8694723 377.62173498 2.3125 371.75 C2.36736572 370.91243164 2.42223145 370.07486328 2.47875977 369.21191406 C2.64041224 366.80689743 2.81889132 364.40361581 3 362 C3.11214844 360.2984375 3.11214844 360.2984375 3.2265625 358.5625 C3.61109378 353.43541626 4.43775744 348.89502669 6 344 C6 343.34 6 342.68 6 342 C6.66 342 7.32 342 8 342 C8.08719631 337.43762069 8.14045922 332.87545614 8.1875 328.3125 C8.21263672 327.01892578 8.23777344 325.72535156 8.26367188 324.39257812 C8.27333984 323.14541016 8.28300781 321.89824219 8.29296875 320.61328125 C8.3086792 319.46641846 8.32438965 318.31955566 8.34057617 317.13793945 C7.96373473 313.66586556 6.92053024 311.86671337 5 309 C5 308.34 5 307.68 5 307 C4.34 307 3.68 307 3 307 C1.61992749 305.7151049 0.29579647 304.36984198 -1 303 C-2.1446875 301.88625 -2.1446875 301.88625 -3.3125 300.75 C-4.199375 299.8425 -5.08625 298.935 -6 298 C-6.57234375 297.42378906 -7.1446875 296.84757812 -7.734375 296.25390625 C-12.45570979 291.24001012 -14.73245487 286.43943551 -17 280 C-17.70614304 278.37404701 -18.41448023 276.74904519 -19.125 275.125 C-21.02731237 270.40637361 -21.84373916 265.76639165 -22.56640625 260.74609375 C-22.96786421 257.8227665 -22.96786421 257.8227665 -24.0625 254.375 C-25.29116073 249.95182139 -25.65090477 245.56579812 -26 241 C-26.66 241 -27.32 241 -28 241 C-29.32 233.08 -30.64 225.16 -32 217 C-32.66 217.33 -33.32 217.66 -34 218 C-48.03738951 218.93684985 -61.38567145 217.75214826 -74 211 C-74 210.34 -74 209.68 -74 209 C-74.88429687 208.76023438 -75.76859375 208.52046875 -76.6796875 208.2734375 C-80.31021381 206.88102388 -82.31112576 205.28009763 -85.125 202.625 C-85.95257813 201.85414063 -86.78015625 201.08328125 -87.6328125 200.2890625 C-93.4609371 194.65328524 -98.15955688 189.19344538 -102 182 C-102.37640625 181.30003906 -102.7528125 180.60007813 -103.140625 179.87890625 C-106 174.39172535 -106 174.39172535 -106 171 C-106.66 171 -107.32 171 -108 171 C-110.03690067 165.37815414 -111.53382452 159.8603659 -112.5703125 153.96875 C-112.8127786 152.00719986 -112.8127786 152.00719986 -114 151 C-114.34634741 146.3637673 -114.34553301 141.71038598 -114.375 137.0625 C-114.37956207 136.38337555 -114.38412415 135.7042511 -114.38882446 135.00454712 C-114.41551125 123.95310472 -113.73130808 113.16898046 -109 103 C-107.515 102.505 -107.515 102.505 -106 102 C-105.57282222 100.13750489 -105.14966183 98.27400311 -104.74609375 96.40625 C-103.26414111 91.62675875 -100.26437976 87.62558195 -97.5 83.5 C-96.60861328 82.12328125 -96.60861328 82.12328125 -95.69921875 80.71875 C-92.43094792 75.76101186 -92.43094792 75.76101186 -91 74 C-90.34 74 -89.68 74 -89 74 C-88.91492188 73.2884375 -88.82984375 72.576875 -88.7421875 71.84375 C-87.83772865 68.37824452 -86.29926257 66.33530211 -84.125 63.5 C-81.52596508 60.08576962 -79.18933245 56.68729676 -77 53 C-67.01835654 38.46605889 -67.01835654 38.46605889 -61.8125 35.9375 C-59.81736404 35.13881633 -59.81736404 35.13881633 -59.0625 33 C-57.60163333 30.25013332 -55.88694538 29.91166696 -53 29 C-53 28.34 -53 27.68 -53 27 C-51.02 26.34 -49.04 25.68 -47 25 C-47 24.34 -47 23.68 -47 23 C-45.39967863 22.15930585 -43.79458829 21.32768495 -42.1875 20.5 C-41.29417969 20.0359375 -40.40085937 19.571875 -39.48046875 19.09375 C-37 18 -37 18 -34 18 C-33.505 16.515 -33.505 16.515 -33 15 C-30.35963237 13.74381608 -27.78884599 12.65749305 -25.0625 11.625 C-20.02426934 9.64837848 -15.1064332 7.65431445 -10.3125 5.125 C-6.88271216 3.33682001 -3.91013247 2.30869467 0 2 C0 1.34 0 0.68 0 0 Z M66 83 C63.96855359 83.93446535 61.96466413 84.93224776 60 86 C60.99 86.495 60.99 86.495 62 87 C64.03144641 86.06553465 66.03533587 85.06775224 68 84 C67.34 83.67 66.68 83.34 66 83 Z M115 111 C115.02567075 112.94356217 115.02567075 112.94356217 116 115 C118.75666139 116.48970649 118.75666139 116.48970649 122.125 117.5625 C123.300625 117.98015625 124.47625 118.3978125 125.6875 118.828125 C126.780625 119.21484375 127.87375 119.6015625 129 120 C130.3818899 120.58823692 131.75895163 121.18835721 133.125 121.8125 C135.94369875 123.19088008 135.94369875 123.19088008 139 123 C139 123.66 139 124.32 139 125 C139.92683594 125.26554687 140.85367188 125.53109375 141.80859375 125.8046875 C143.00613281 126.15789062 144.20367187 126.51109375 145.4375 126.875 C146.63246094 127.22304687 147.82742188 127.57109375 149.05859375 127.9296875 C152 129 152 129 153 131 C155.34907875 131.68931344 155.34907875 131.68931344 158.0625 132.125 C158.98160156 132.29257813 159.90070313 132.46015625 160.84765625 132.6328125 C161.55792969 132.75398438 162.26820313 132.87515625 163 133 C163 132.34 163 131.68 163 131 C162.01 131 161.02 131 160 131 C160 130.34 160 129.68 160 129 C159.443125 128.81824219 158.88625 128.63648438 158.3125 128.44921875 C145.20183486 124.13067196 145.20183486 124.13067196 140.6875 121.8125 C138.86165175 120.78309219 138.86165175 120.78309219 136 121 C136 120.34 136 119.68 136 119 C135.19175781 118.74605469 134.38351562 118.49210937 133.55078125 118.23046875 C132.48214844 117.88628906 131.41351563 117.54210937 130.3125 117.1875 C129.25675781 116.85105469 128.20101562 116.51460938 127.11328125 116.16796875 C124.13725363 115.05149164 121.6862999 113.67893744 119 112 C116.80869466 111.30420546 116.80869466 111.30420546 115 111 Z " fill="#FDDE07" transform="translate(231,5)"/>
<path d="M0 0 C0.99 0 1.98 0 3 0 C3 0.66 3 1.32 3 2 C3.86625 2.4021875 3.86625 2.4021875 4.75 2.8125 C9.33390269 5.23178198 11.3735276 7.56661785 14 12 C15.1152831 13.54871066 16.24060639 15.09023218 17.375 16.625 C21.31291956 22.20162919 26 28.97970077 26 36 C26.99 36.33 27.98 36.66 29 37 C30.02734375 39.58984375 30.02734375 39.58984375 30.9375 42.9375 C32.09600579 47.00328266 33.29643259 50.88189988 35 54.75 C36.87745238 59.27666384 38.06537103 63.86725536 39.1875 68.625 C39.43790039 69.68219238 39.43790039 69.68219238 39.69335938 70.76074219 C40.76685449 75.48986368 41.46388903 80.18041651 42 85 C42.66 85 43.32 85 44 85 C44 104.8 44 124.6 44 145 C43.34 145 42.68 145 42 145 C41.97421875 145.63164062 41.9484375 146.26328125 41.921875 146.9140625 C41.41042714 154.98099006 39.41437875 162.30767701 37 170 C36.34 170 35.68 170 35 170 C34.9175 170.94875 34.835 171.8975 34.75 172.875 C33.43349308 181.70437304 28.74638184 189.6987927 24.73022461 197.55444336 C23.30478579 200.3464804 21.99307843 203.0207647 21 206 C20.34 206 19.68 206 19 206 C18.34 208.31 17.68 210.62 17 213 C16.34 213 15.68 213 15 213 C14.896875 213.556875 14.79375 214.11375 14.6875 214.6875 C13.86071696 217.46849749 12.55238908 219.55200184 11 222 C10.566875 222.763125 10.13375 223.52625 9.6875 224.3125 C7.86457223 227.21568127 5.83670215 229.87801549 3.75390625 232.59765625 C0.90494908 236.49990271 -1.66578458 240.58518206 -4.265625 244.65625 C-4.83796875 245.4296875 -5.4103125 246.203125 -6 247 C-6.66 247 -7.32 247 -8 247 C-8.3403125 248.3303125 -8.3403125 248.3303125 -8.6875 249.6875 C-10.2016359 253.5088906 -12.07268413 255.14938236 -15 258 C-16.44084181 259.68799351 -17.8573254 261.39705189 -19.25 263.125 C-20.02988281 264.08664062 -20.80976562 265.04828125 -21.61328125 266.0390625 C-23.15337689 267.94968851 -24.69251073 269.86109039 -26.23046875 271.7734375 C-30.94832318 277.60186651 -35.83299627 283.19577689 -40.93359375 288.6875 C-43.11369637 291.01802691 -43.11369637 291.01802691 -45 294 C-45.66 294 -46.32 294 -47 294 C-47.3403125 294.8353125 -47.3403125 294.8353125 -47.6875 295.6875 C-49.3694256 298.65089272 -51.57212279 300.60268348 -54 303 C-56.02247502 305.12518016 -58.01181215 307.28026572 -60 309.4375 C-60.50789062 309.98470703 -61.01578125 310.53191406 -61.5390625 311.09570312 C-64.0002244 313.76196185 -66.40549869 316.45396457 -68.71875 319.25 C-71.00945334 322.01139581 -73.43221187 324.49640657 -76 327 C-76.78375 327.78375 -77.5675 328.5675 -78.375 329.375 C-79.24125 330.24125 -80.1075 331.1075 -81 332 C-81.59425781 332.61746094 -82.18851563 333.23492188 -82.80078125 333.87109375 C-83.42339844 334.51175781 -84.04601562 335.15242188 -84.6875 335.8125 C-85.26886719 336.41707031 -85.85023438 337.02164062 -86.44921875 337.64453125 C-88 339 -88 339 -90 339 C-90.3403125 339.86625 -90.3403125 339.86625 -90.6875 340.75 C-92.3408693 343.58434736 -94.42963944 344.96762189 -97 347 C-98.68732277 348.98260426 -100.35366057 350.9832342 -102 353 C-105.45713647 356.63442552 -109.04468779 359.92364606 -113 363 C-113.66 363 -114.32 363 -115 363 C-115.34804688 363.85271484 -115.34804688 363.85271484 -115.703125 364.72265625 C-117.32239548 367.56613423 -119.28877304 369.28579098 -121.75 371.4375 C-122.64460937 372.22382812 -123.53921875 373.01015625 -124.4609375 373.8203125 C-126.41940128 375.50157833 -128.38473743 377.16925757 -130.375 378.8125 C-132.9707645 380.90852117 -132.9707645 380.90852117 -135.0625 383.0625 C-137.24945223 385.24945223 -139.51023642 387.16543736 -142 389 C-142.66 389 -143.32 389 -144 389 C-144 389.66 -144 390.32 -144 391 C-145.7578125 392.55078125 -145.7578125 392.55078125 -148.125 394.3125 C-150.96789202 396.45250375 -153.75095871 398.60427555 -156.4375 400.9375 C-159 403 -159 403 -161 403 C-161 403.66 -161 404.32 -161 405 C-161.66 405 -162.32 405 -163 405 C-163 405.66 -163 406.32 -163 407 C-164.37393106 407.92740346 -165.75355754 408.84716949 -167.15625 409.73046875 C-169.25813777 411.17774317 -171.1016717 412.79515516 -173 414.5 C-181.41935484 422 -181.41935484 422 -185 422 C-185 422.66 -185 423.32 -185 424 C-186.87109375 425.515625 -186.87109375 425.515625 -189.4375 427.25 C-190.34628906 427.87003906 -191.25507813 428.49007813 -192.19140625 429.12890625 C-193.96524042 430.31064 -195.7433553 431.48599581 -197.52734375 432.65234375 C-202.02924314 435.56221159 -202.02924314 435.56221159 -206.0625 439.0625 C-208.95831256 441.95831256 -212.38344137 444.08995605 -216 446 C-216.66 446 -217.32 446 -218 446 C-218 446.66 -218 447.32 -218 448 C-219.6796875 449.2890625 -219.6796875 449.2890625 -221.875 450.625 C-222.59429687 451.07101562 -223.31359375 451.51703125 -224.0546875 451.9765625 C-226 453 -226 453 -228 453 C-228.33 453.99 -228.66 454.98 -229 456 C-231.21484375 457.60546875 -231.21484375 457.60546875 -233.9375 459.1875 C-234.83339844 459.71730469 -235.72929687 460.24710938 -236.65234375 460.79296875 C-239 462 -239 462 -241 462 C-241 462.66 -241 463.32 -241 464 C-241.63808594 464.33773438 -242.27617187 464.67546875 -242.93359375 465.0234375 C-243.75988281 465.46945312 -244.58617187 465.91546875 -245.4375 466.375 C-246.26121094 466.81585937 -247.08492188 467.25671875 -247.93359375 467.7109375 C-250.13466578 468.83418559 -250.13466578 468.83418559 -251 471 C-252.32 471 -253.64 471 -255 471 C-254.67 469.35 -254.34 467.7 -254 466 C-253.34 466 -252.68 466 -252 466 C-251.7525 465.278125 -251.505 464.55625 -251.25 463.8125 C-250 461 -250 461 -248.1875 458.8125 C-245.12106427 454.86993978 -243.13177903 450.49945165 -241 446 C-240.34 446 -239.68 446 -239 446 C-238.74089844 445.2678125 -238.48179687 444.535625 -238.21484375 443.78125 C-236.96536225 440.92070072 -235.53366325 438.90778651 -233.5625 436.5 C-230.14299856 432.222076 -227.3766118 427.93603989 -225 423 C-224.34 423 -223.68 423 -223 423 C-222.73316406 422.42507813 -222.46632813 421.85015625 -222.19140625 421.2578125 C-220.95935505 418.92297449 -219.55161725 416.96105816 -217.9375 414.875 C-215.76773805 412.06372737 -215.76773805 412.06372737 -214 409 C-213.34 409 -212.68 409 -212 409 C-211.7628125 408.31550781 -211.525625 407.63101562 -211.28125 406.92578125 C-209.73491106 403.39465972 -207.69619934 400.33445017 -205.5 397.1875 C-204.89478516 396.2912793 -204.89478516 396.2912793 -204.27734375 395.37695312 C-203.23960218 393.87856389 -202.12524203 392.43384386 -201 391 C-200.34 391 -199.68 391 -199 391 C-198.67 389.68 -198.34 388.36 -198 387 C-197.34 387 -196.68 387 -196 387 C-195.79375 386.34 -195.5875 385.68 -195.375 385 C-194.14567197 382.31782974 -192.92175859 380.48789547 -191.125 378.1875 C-188.59303827 374.93036476 -186.72039189 371.72469593 -185.0546875 367.95703125 C-183.65924302 365.36770649 -181.87859226 363.26050387 -180 361 C-174.00163263 353.76668401 -174.00163263 353.76668401 -169.04296875 345.8203125 C-167.74942727 343.56267081 -166.26393727 341.49111007 -164.75 339.375 C-161.15247843 334.31671374 -157.91686386 329.0888974 -154.69921875 323.78515625 C-153.50710457 321.83118519 -152.26966248 319.90449372 -151 318 C-150.34 318 -149.68 318 -149 318 C-148.7525 317.12472656 -148.505 316.24945313 -148.25 315.34765625 C-146.92871049 311.80907778 -145.3039854 309.4148929 -143 306.4375 C-140.35010462 303.00335249 -138.59961481 300.00570209 -137 296 C-136.02708568 294.97362885 -135.02505061 293.97430553 -134 293 C-132.879505 291.35808653 -131.8000066 289.68786108 -130.75 288 C-129.82960938 286.53046875 -129.82960938 286.53046875 -128.890625 285.03125 C-127.95476562 283.53078125 -127.95476562 283.53078125 -127 282 C-125.83533475 280.16539457 -124.66870979 278.33203156 -123.5 276.5 C-121.69038203 273.65689818 -119.88143722 270.81337785 -118.07421875 267.96875 C-117.45160156 266.9890625 -116.82898438 266.009375 -116.1875 265 C-115.62417969 264.113125 -115.06085938 263.22625 -114.48046875 262.3125 C-113.33901988 260.52955084 -112.17431659 258.76147488 -111 257 C-110.34 257 -109.68 257 -109 257 C-108.731875 256.113125 -108.46375 255.22625 -108.1875 254.3125 C-107.0749365 251.2090334 -105.89804222 248.68889315 -104 246 C-103.34 246 -102.68 246 -102 246 C-101.731875 245.28457031 -101.46375 244.56914062 -101.1875 243.83203125 C-99.98268693 240.95871061 -98.58762888 238.36662374 -97 235.6875 C-96.484375 234.80449219 -95.96875 233.92148437 -95.4375 233.01171875 C-94.963125 232.34785156 -94.48875 231.68398438 -94 231 C-93.34 231 -92.68 231 -92 231 C-91.71125 230.071875 -91.4225 229.14375 -91.125 228.1875 C-90 225 -90 225 -88 222 C-87.34 222 -86.68 222 -86 222 C-85.01 219.03 -85.01 219.03 -84 216 C-83.34 216 -82.68 216 -82 216 C-81.79375 215.319375 -81.5875 214.63875 -81.375 213.9375 C-79.8247764 210.62565867 -77.8673796 208.39819898 -75.4453125 205.6953125 C-73.85959924 203.93160444 -73.85959924 203.93160444 -72.4375 201.375 C-70.65169042 198.424532 -68.49551116 196.38207884 -66 194 C-61.83238747 189.93974986 -57.90521346 185.82704692 -54.26171875 181.28515625 C-53.84535156 180.86105469 -53.42898438 180.43695313 -53 180 C-52.34 180 -51.68 180 -51 180 C-50.73590332 179.41661865 -50.47180664 178.8332373 -50.19970703 178.23217773 C-48.09077489 174.30829362 -44.90452333 171.29536682 -41.875 168.0625 C-40.9159375 167.00772461 -40.9159375 167.00772461 -39.9375 165.93164062 C-34.74345688 160.36733941 -29.3598637 154.9658936 -21.4375 154.4375 C-16.71192134 154.72365096 -13.79849234 156.20927093 -10 159 C-8.75 161.1875 -8.75 161.1875 -8 163 C-7.01 163.33 -6.02 163.66 -5 164 C-5 164.66 -5 165.32 -5 166 C-4.38125 166.309375 -3.7625 166.61875 -3.125 166.9375 C-1.75 167.625 -0.375 168.3125 1 169 C1.33 168.01 1.66 167.02 2 166 C2.66 166 3.32 166 4 166 C4.15855469 165.42894531 4.31710937 164.85789062 4.48046875 164.26953125 C6.23801691 158.16180863 8.37168179 152.27637754 10.71875 146.37109375 C13.52794878 138.9798177 15.6410932 131.69360258 17.1875 123.9375 C17.36474609 123.07189453 17.54199219 122.20628906 17.72460938 121.31445312 C18.15467113 119.2106375 18.57805168 117.10545788 19 115 C19.66 115 20.32 115 21 115 C21 97.51 21 80.02 21 62 C20.34 62 19.68 62 19 62 C18.87471924 61.31599121 18.74943848 60.63198242 18.62036133 59.92724609 C16.26065877 47.19876435 13.84126816 35.03613746 9 23 C8.04064256 20.44525436 7.11254483 17.87982979 6.1875 15.3125 C5.76855469 14.17425781 5.34960938 13.03601563 4.91796875 11.86328125 C4 9 4 9 4 6 C3.34 6 2.68 6 2 6 C1.34 4.02 0.68 2.04 0 0 Z " fill="#FDDE07" transform="translate(567,184)"/>
<path d="M0 0 C2.31 0 4.62 0 7 0 C6.92998779 0.79092041 6.85997559 1.58184082 6.7878418 2.39672852 C6.03136148 11.76544627 5.81376546 21.07210684 5.81469727 30.4675293 C5.81250578 32.93100154 5.79425125 35.39402789 5.77539062 37.85742188 C5.72951589 50.54797789 6.56857046 62.89601216 10 75.1875 C10.495 77.00314453 10.495 77.00314453 11 78.85546875 C11.82279643 81.44277784 12.72815076 83.62107552 14 86 C16.18631373 91.60837 18.13252446 97.27837281 20 103 C20.66 103 21.32 103 22 103 C22.26554687 103.60328125 22.53109375 104.2065625 22.8046875 104.828125 C23.15789062 105.62734375 23.51109375 106.4265625 23.875 107.25 C24.22304687 108.03890625 24.57109375 108.8278125 24.9296875 109.640625 C25.61578789 111.15305067 26.34705681 112.64624372 27.1328125 114.109375 C28 116 28 116 28 119 C28.99 119.33 29.98 119.66 31 120 C34 125.22222222 34 125.22222222 34 128 C34.66 128 35.32 128 36 128 C37.54359636 130.20215775 38.97447562 132.39677304 40.375 134.6875 C43.04617316 139.01034857 45.77233062 143.05972829 49 147 C49.495 147.845625 49.99 148.69125 50.5 149.5625 C51.88503099 152.02494537 51.88503099 152.02494537 53.8046875 153.80078125 C56.27437334 156.27486155 58.4317394 158.90359638 60.625 161.625 C63.68273226 165.42947898 63.68273226 165.42947898 67 169 C67 169.99 67 170.98 67 172 C67.99 172.33 68.98 172.66 70 173 C73.5573482 176.88826431 76.79098642 180.99548569 80.0625 185.125 C82.86481714 188.65049576 85.77079706 191.85577608 89 195 C95 201.65871122 95 201.65871122 95 203 C79.81216539 203.24496507 65.86048426 192.7236407 55 183 C53.62505934 181.81243129 52.25005779 180.62493308 50.875 179.4375 C47.79253303 176.73296001 44.86497319 173.93659752 42 171 C41.39414063 170.40445313 40.78828125 169.80890625 40.1640625 169.1953125 C26.24048225 155.48512046 14.07149644 139.73952166 4 123 C3.60554688 122.35804688 3.21109375 121.71609375 2.8046875 121.0546875 C0 116.36713287 0 116.36713287 0 113 C-0.66 113 -1.32 113 -2 113 C-3.34277732 110.2336466 -4.67255228 107.46123789 -6 104.6875 C-6.3815625 103.90181641 -6.763125 103.11613281 -7.15625 102.30664062 C-7.5171875 101.54931641 -7.878125 100.79199219 -8.25 100.01171875 C-8.58515625 99.31522217 -8.9203125 98.61872559 -9.265625 97.90112305 C-10 96 -10 96 -10 93 C-10.66 93 -11.32 93 -12 93 C-12 73.86 -12 54.72 -12 35 C-11.34 35 -10.68 35 -10 35 C-9.9175 33.96875 -9.835 32.9375 -9.75 31.875 C-8.61643299 22.88629258 -5.80137151 13.99563727 -1.83203125 5.8671875 C-0.9701629 3.93304162 -0.45418547 2.06447942 0 0 Z " fill="#FDDE07" transform="translate(119,191)"/>
<path d="M0 0 C6.63918292 5.39070683 12.01062618 12.09163625 17 19 C17.43441406 19.59039062 17.86882812 20.18078125 18.31640625 20.7890625 C20.18929258 23.43851146 21 24.67719492 21 28 C21.66 28 22.32 28 23 28 C23 28.99 23 29.98 23 31 C23.66 31 24.32 31 25 31 C25.18175781 31.66386719 25.36351562 32.32773438 25.55078125 33.01171875 C27.08423186 38.53054829 27.08423186 38.53054829 29.625 43.625 C33.10301592 49.63248204 32.18287186 58.17578263 32.1875 64.9375 C32.19974609 65.87529297 32.21199219 66.81308594 32.22460938 67.77929688 C32.2394619 74.90355802 31.2511563 81.2465311 29 88 C28.34 88 27.68 88 27 88 C26.896875 89.010625 26.79375 90.02125 26.6875 91.0625 C25.96295233 95.21218208 24.77730734 98.21356263 23 102 C22.34 102 21.68 102 21 102 C20.773125 102.680625 20.54625 103.36125 20.3125 104.0625 C18.69065302 107.69234801 16.78866402 111.13430106 14 114 C11.8359375 114.703125 11.8359375 114.703125 10 115 C10 115.66 10 116.32 10 117 C3.10284464 121.07877462 3.10284464 121.07877462 -1.5 120.75 C-2.7375 120.37875 -2.7375 120.37875 -4 120 C-4.8125 117.875 -4.8125 117.875 -5 115 C-2.8125 112.125 -2.8125 112.125 -1.390625 110.5859375 C0.37525552 108.57204005 1.61967496 106.33505752 2.89453125 103.98828125 C4.22872523 101.58861786 5.67964418 99.27176715 7.125 96.9375 C9.27737715 93.37738123 10.93336107 90.05322793 12 86 C12.66 86 13.32 86 14 86 C14.13277344 85.32453125 14.26554687 84.6490625 14.40234375 83.953125 C14.83120562 81.83404284 15.28463574 79.71987657 15.75390625 77.609375 C18.93794945 62.41210601 20.86273772 43.43169675 13.25 29.125 C12.13625 27.578125 12.13625 27.578125 11 26 C10.48308594 25.25105469 9.96617187 24.50210938 9.43359375 23.73046875 C4.52507273 16.93321033 -0.18638152 13.13600398 -8.62109375 11.3203125 C-18.03001212 9.93835981 -18.03001212 9.93835981 -26.75 12.6875 C-31.10862073 17.16719353 -32.64745028 23.28033073 -33.4375 29.375 C-32.89708387 32.61749676 -31.95337021 34.34752888 -30 37 C-27.16117033 38.67818181 -27.16117033 38.67818181 -23.875 39.9375 C-7.94188402 46.90046707 -7.94188402 46.90046707 -4.59375 53.96875 C-1.93741782 63.05620218 -4.86463219 70.86905147 -9 79 C-9.98134908 80.67771623 -10.97581338 82.3480861 -12 84 C-12.99 83.67 -13.98 83.34 -15 83 C-16.62323754 79.24092359 -17.23994929 76.07913787 -17 72 C-17.66 72 -18.32 72 -19 72 C-19.4125 70.99839844 -19.825 69.99679687 -20.25 68.96484375 C-23.6999702 60.90951745 -26.74676148 55.23334931 -34 50 C-39.84530096 44.68609003 -44.20738136 38.09941372 -45.44140625 30.16015625 C-45.83773056 20.02192465 -42.689407 11.67775736 -36.2578125 3.890625 C-26.30374735 -5.37537113 -11.6399916 -6.30634642 0 0 Z " fill="#FDDE07" transform="translate(419,206)"/>
<path d="M0 0 C2.475 0.495 2.475 0.495 5 1 C4.30721464 7.49898644 3.48544854 13.96739411 2.5625 20.4375 C2.44068359 21.31470703 2.31886719 22.19191406 2.19335938 23.09570312 C1.3376975 29.11193716 0.25251196 35.05396524 -1 41 C-1.66 41 -2.32 41 -3 41 C-3.03738281 41.825 -3.07476562 42.65 -3.11328125 43.5 C-3.57209269 51.56068722 -4.655673 59.22961721 -6.234375 67.1328125 C-7.27768487 72.40259193 -8.14625995 77.69676769 -9 83 C-10.98 83.495 -10.98 83.495 -13 84 C-13.3403125 83.13375 -13.3403125 83.13375 -13.6875 82.25 C-14.90577533 79.8332755 -14.90577533 79.8332755 -17.375 78.1875 C-20.70687684 75.41093597 -22.0650404 72.86991919 -24 69 C-24 68.34 -24 67.68 -24 67 C-24.66 66.67 -25.32 66.34 -26 66 C-30.14353609 59.14722878 -30.27916939 50.53315131 -28.49609375 42.8203125 C-26.66453213 38.27803968 -23.67728643 34.09029872 -21 30 C-20.62359375 29.39285156 -20.2471875 28.78570312 -19.859375 28.16015625 C-18.96184008 26.73682662 -17.98768281 25.36232112 -17 24 C-16.34 24 -15.68 24 -15 24 C-14.74089844 23.278125 -14.48179687 22.55625 -14.21484375 21.8125 C-12.94928039 18.88257839 -11.43579098 16.57829296 -9.5625 14 C-7.70662567 11.43464456 -5.96737829 8.94257302 -4.40234375 6.1875 C-3.93957031 5.465625 -3.47679687 4.74375 -3 4 C-2.34 4 -1.68 4 -1 4 C-0.67 2.68 -0.34 1.36 0 0 Z " fill="#FDDE07" transform="translate(426,417)"/>
<path d="M0 0 C0 0.99 0 1.98 0 3 C-0.66 3 -1.32 3 -2 3 C-2.144375 4.093125 -2.28875 5.18625 -2.4375 6.3125 C-3 10 -3 10 -4 13 C-4.66 13 -5.32 13 -6 13 C-6 13.99 -6 14.98 -6 16 C-11.34883721 21 -11.34883721 21 -14 21 C-14 21.66 -14 22.32 -14 23 C-18.46334184 24.72293135 -22.10201231 25.22240791 -26.875 25.125 C-28.02742188 25.10695313 -29.17984375 25.08890625 -30.3671875 25.0703125 C-31.23601562 25.04710937 -32.10484375 25.02390625 -33 25 C-32.50273738 20.45578469 -32.50273738 20.45578469 -30.28515625 18.4453125 C-29.55167969 18.00960938 -28.81820313 17.57390625 -28.0625 17.125 C-23.58410187 14.36906269 -19.32725187 11.40092389 -15.06640625 8.3203125 C-13 7 -13 7 -11 7 C-10.67 6.01 -10.34 5.02 -10 4 C-8.4765625 2.83203125 -8.4765625 2.83203125 -6.625 1.8125 C-6.01914062 1.46832031 -5.41328125 1.12414062 -4.7890625 0.76953125 C-3 0 -3 0 0 0 Z " fill="#FDDE07" transform="translate(291,300)"/>
<path d="" fill="#FDDE07" transform="translate(0,0)"/>
<path d="" fill="#FDDE07" transform="translate(0,0)"/>
<path d="" fill="#FDDE07" transform="translate(0,0)"/>
<path d="" fill="#FDDE07" transform="translate(0,0)"/>
</svg>
